<svg width="26" height="28" viewBox="0 0 26 28" fill="none" xmlns="http://www.w3.org/2000/svg">
<path d="M9.17971 25.4517V21.3446C9.17971 20.2962 10.0296 19.4462 11.0779 19.4462H14.9101C15.4136 19.4462 15.8964 19.6462 16.2524 20.0023C16.6084 20.3583 16.8084 20.8411 16.8084 21.3446V25.4517C16.8052 25.8875 16.9761 26.3067 17.2832 26.616C17.5902 26.9253 18.0081 27.0993 18.4439 27.0993H21.0584C22.2795 27.1025 23.4517 26.6196 24.3162 25.7572C25.1808 24.8948 25.6667 23.7239 25.6667 22.5027V10.8022C25.6666 9.81581 25.2294 8.88013 24.4728 8.24725L15.5787 1.14341C14.0315 -0.102133 11.8148 -0.061917 10.3139 1.23893L1.62269 8.24725C0.830323 8.86147 0.356739 9.79993 0.333336 10.8022V22.4907C0.333336 25.036 2.39651 27.0993 4.94157 27.0993H7.49639C8.40164 27.0993 9.13733 26.3689 9.14389 25.4636L9.17971 25.4517Z" fill="white"/>
</svg>
